<?xml version="1.0" ?><svg data-name="Layer 45" height="24" id="Layer_45" viewBox="0 0 24 24" width="24" xmlns="http://www.w3.org/2000/svg"><title/><path d="M20.269,14.03076,17.90918,10.601a2.1639,2.1639,0,0,1,1.8397-1.03848,2.2763,2.2763,0,0,1,.52016,4.46826Z" style="fill:#fff"/><path d="M3.65264,13.99326,6.0125,10.56348A2.1639,2.1639,0,0,0,4.1728,9.525a2.2763,2.2763,0,0,0-.52016,4.46826Z" style="fill:#fff"/><path d="M12,8.625c-4.55636,0-8.25,2.63033-8.25,5.875S7.44364,20.375,12,20.375s8.25-2.63033,8.25-5.875S16.55636,8.625,12,8.625Z" style="fill:#fff"/><path d="M17.8501,7.375A1.55185,1.55185,0,0,1,16.3877,5.75a1.47054,1.47054,0,1,1,2.9248,0A1.55185,1.55185,0,0,1,17.8501,7.375Z" style="fill:#fff"/><path d="M12,9.5c4.06542,0,7.5,2.28972,7.5,5s-3.43458,5-7.5,5-7.5-2.28972-7.5-5,3.43458-5,7.5-5M12,8c-4.97057,0-9,2.91015-9,6.5S7.02943,21,12,21s9-2.91015,9-6.5S16.97057,8,12,8Z" style="fill:#738394"/><circle cx="9" cy="13.25" r="1.25" style="fill:#ffab66"/><circle cx="14.75" cy="13.25" r="1.25" style="fill:#ffab66"/><path d="M3.62891,14.74316a2.98943,2.98943,0,1,1,3.22363-4.52344L5.5918,11.0332a1.48945,1.48945,0,1,0-1.60742,2.25293Z" style="fill:#738394"/><path d="M20.39551,14.74316l-.35547-1.457a1.48944,1.48944,0,1,0-1.60693-2.25293l-1.26074-.81348a2.98939,2.98939,0,1,1,3.22314,4.52344Z" style="fill:#738394"/><path d="M12,18.04248a5.92408,5.92408,0,0,1-3.23389-.9248.50013.50013,0,0,1,.55078-.835,5.26716,5.26716,0,0,0,5.36621,0,.50013.50013,0,0,1,.55078.835A5.92408,5.92408,0,0,1,12,18.04248Z" style="fill:#738394"/><path d="M12.52832,8.92773l-.60205-.13623H11.0415a39.57133,39.57133,0,0,1,1.42578-4.79834l.22412-.71631,3.88281,1.21582L16.126,5.92432l-2.45068-.76758C13.18994,6.71582,12.58154,8.69141,12.52832,8.92773Z" style="fill:#738394"/><path d="M17.8501,8a2.25,2.25,0,1,1,2.25-2.25A2.25246,2.25246,0,0,1,17.8501,8Zm0-3a.75.75,0,1,0,.75.75A.75082.75082,0,0,0,17.8501,5Z" style="fill:#738394"/></svg>